PathFileType	4	(X/Y/Z)	Run_200 02
DataRate	CameraRate	NumFrames	NumMarkers	Units	OrigDataRate	OrigDataStartFrame	OrigNumFrames
100	100	8	42	mm	100	451	128
Frame#	Time	LPSI			RPSI			RTH1			RTH2			RTH3			LTH1			LTH2			LTH3			RTB1			RTB2			RTB3			LTB1			LTB2			LTB3			RCAL			RTOE			RMT5			LCAL			LTOE			LMT5			LACR			RACR			CLAV			C7			RUA1			RUA2			RUA3			RLEL			RMEL			LUA1			LUA2			LUA3			LLEL			LMEL			RFAsuperior			RFAradius			RFAulna			LFAsuperior			LFAradius			LFAulna			RASI			LASI		
		X1	Y1	Z1	X2	Y2	Z2	X3	Y3	Z3	X4	Y4	Z4	X5	Y5	Z5	X6	Y6	Z6	X7	Y7	Z7	X8	Y8	Z8	X9	Y9	Z9	X10	Y10	Z10	X11	Y11	Z11	X12	Y12	Z12	X13	Y13	Z13	X14	Y14	Z14	X15	Y15	Z15	X16	Y16	Z16	X17	Y17	Z17	X18	Y18	Z18	X19	Y19	Z19	X20	Y20	Z20	X21	Y21	Z21	X22	Y22	Z22	X23	Y23	Z23	X24	Y24	Z24	X25	Y25	Z25	X26	Y26	Z26	X27	Y27	Z27	X28	Y28	Z28	X29	Y29	Z29	X30	Y30	Z30	X31	Y31	Z31	X32	Y32	Z32	X33	Y33	Z33	X34	Y34	Z34	X35	Y35	Z35	X36	Y36	Z36	X37	Y37	Z37	X38	Y38	Z38	X39	Y39	Z39	X40	Y40	Z40	X41	Y41	Z41	X42	Y42	Z42	

451	  4.510000	630.792034	1058.699669	-495.867488	632.920365	1058.138646	-412.640549	771.610117	864.401062	-261.465268	859.531824	743.095058	-277.326188	810.451564	624.347007	-296.058659	765.480123	864.049797	-631.984666	826.774313	746.576204	-604.737561	741.643978	613.713671	-611.311465	869.440481	381.774153	-363.710613	799.250453	292.506066	-314.728984	794.345134	194.972998	-380.279752	671.700611	413.091126	-553.148242	578.847250	439.160622	-621.903667	476.432761	352.595556	-553.653324	633.334184	 85.491508	-406.481407	870.702851	 68.336363	-385.897889	830.488780	 49.310850	-297.888314	313.624155	426.789387	-526.667796	337.607986	197.601683	-558.300273	296.192931	232.426977	-631.496281	783.978667	1520.746239	-597.641619	734.127082	1492.465734	-263.562447	841.057549	1466.422850	-396.163371	704.949046	1540.910925	-449.640228	661.324253	1389.022249	-184.749455	585.518338	1321.268582	-215.855651	609.783222	1286.609187	-152.177703	584.395305	1198.095548	-121.458538	555.601493	1175.741663	-196.152703	752.566626	1432.245616	-705.880373	686.848770	1354.510946	-719.705984	744.940232	1330.530584	-771.782478	754.671354	1250.647470	-814.413124	686.335661	1215.863650	-786.234785	647.035054	1143.981086	-123.566705	838.517498	1109.685486	-196.117903	800.114638	1048.260212	-186.647817	831.211436	1183.234074	-738.381266	892.037161	1171.028314	-592.932206	879.383529	1110.567180	-623.195000	818.194890	982.846343	-323.313588	818.918613	1009.687848	-588.538900	
452	  4.520000	628.313722	1055.206626	-495.421734	630.674990	1054.576693	-412.547288	769.659280	860.754245	-262.305849	856.778178	739.141970	-277.471804	806.560044	620.050580	-295.217387	764.038730	860.213669	-631.352473	831.950894	744.904421	-603.396123	751.844459	609.624168	-610.147318	859.520078	376.995036	-363.215128	786.913781	289.771628	-314.402120	777.702080	192.807317	-380.133027	685.584894	410.993134	-551.408648	593.356183	438.225714	-620.714456	489.433249	353.182104	-552.688315	613.693734	 86.522666	-406.294511	850.786887	 67.927073	-385.616497	810.456273	 49.085196	-297.680093	326.060138	429.350892	-527.269441	350.798645	199.949184	-557.348377	310.613275	234.441729	-631.535781	783.532518	1516.590331	-596.530968	735.724062	1486.147961	-261.960443	841.171556	1460.573230	-395.477691	705.562122	1537.661556	-447.793638	665.842186	1380.273584	-183.119296	591.533058	1309.535718	-213.123440	617.796709	1275.842456	-150.041647	596.153794	1186.271001	-119.072121	565.778403	1163.279986	-192.844732	748.648294	1429.201130	-704.761125	681.604409	1351.545491	-716.266618	737.506889	1328.077086	-771.450188	746.274737	1248.080083	-814.247057	677.248952	1214.909804	-785.798963	660.008636	1133.393890	-122.626152	850.285933	1101.779882	-199.282051	812.590296	1039.948019	-189.431581	821.436113	1174.731450	-741.807383	884.191107	1152.921280	-598.554417	868.483790	1094.661181	-631.405051	816.130222	979.049613	-322.935557	817.274743	1005.982371	-588.475099	
453	  4.530000	626.054229	1052.443470	-495.258066	627.984075	1052.026458	-412.276502	767.376432	858.753292	-262.367857	852.521354	735.398877	-277.111101	800.842289	616.665742	-294.159003	761.426049	856.928640	-630.949666	836.251128	744.413365	-602.917634	761.777326	606.887000	-609.224546	848.111505	372.571920	-361.761491	773.521551	287.592967	-314.245265	761.044966	191.295140	-380.169798	700.063573	410.058769	-550.075965	608.271488	437.624908	-619.657942	503.545058	353.256555	-551.797154	594.459609	 88.141778	-406.627783	831.121041	 67.445526	-385.468567	790.554561	 48.923942	-297.666227	339.053669	430.120783	-527.839482	366.208997	200.700921	-556.016775	326.967952	234.436259	-631.263331	783.045465	1513.710188	-595.642238	737.325770	1481.289483	-260.557004	841.244094	1455.910932	-394.872446	705.739172	1535.028335	-446.186219	669.799260	1373.482758	-181.962341	597.432002	1299.841110	-211.421438	625.853878	1266.956334	-148.555945	607.801637	1176.406254	-117.434663	576.110695	1152.985446	-190.446378	745.024585	1427.580491	-703.773464	676.460929	1350.477495	-712.255895	729.751273	1327.495608	-770.904781	737.561950	1247.606345	-814.368388	667.970524	1215.931601	-785.746318	672.779768	1124.395637	-122.839091	862.162525	1097.188128	-203.719883	825.613899	1034.875359	-193.740064	810.852750	1168.168976	-745.628704	874.575420	1136.987187	-604.571065	855.756219	1081.092897	-639.732552	813.608292	976.272849	-322.385136	815.173591	1003.294894	-588.237436	
454	  4.540000	623.927176	1050.796098	-495.307518	625.499365	1050.552281	-412.001604	764.366893	857.722007	-261.506962	846.811979	731.917784	-276.147311	793.447409	614.221169	-293.280070	758.693173	854.735675	-630.731770	839.861630	745.398285	-603.171753	771.199058	605.926885	-608.404939	835.454996	368.727787	-360.014339	759.034747	286.076880	-314.337341	744.202816	190.393549	-380.614049	714.924774	410.315959	-549.058442	623.246086	437.313562	-618.638594	518.439042	352.808617	-550.754071	575.294976	 90.150338	-407.311568	811.334789	 66.936396	-385.413293	770.502538	 49.005513	-297.723594	352.289188	428.907064	-528.258965	383.745236	199.760660	-554.485156	345.168282	232.443076	-630.774771	782.362973	1512.150412	-594.957333	738.682884	1478.142469	-259.275810	841.241053	1452.697135	-394.362190	705.325194	1533.226953	-444.894737	673.477649	1368.323513	-181.171290	602.910473	1292.254969	-210.097713	633.864815	1259.945360	-147.602680	619.080928	1168.468761	-116.686397	586.469950	1144.931902	-189.177785	741.561270	1427.458518	-703.076780	671.329236	1351.620591	-708.740177	722.089080	1328.802922	-770.375569	728.450597	1249.172585	-814.973251	658.371669	1218.981849	-786.089293	685.108785	1117.433455	-124.202551	873.761630	1096.309025	-209.165397	838.936512	1033.258691	-199.103385	799.312871	1163.660673	-749.926003	863.476018	1124.336128	-610.870768	841.369282	1070.779278	-647.714865	811.218992	974.532719	-321.807530	813.203747	1001.644364	-587.969085	
455	  4.550000	621.968152	1050.416917	-495.375183	623.446487	1050.109539	-411.753371	760.580676	856.930839	-260.319259	839.963895	728.888117	-275.093129	784.590014	612.461989	-292.873226	756.784949	854.060407	-630.708672	843.123015	747.952227	-603.856301	780.073703	606.874341	-607.586896	821.666715	365.696552	-358.630352	743.451347	285.190739	-314.529604	726.844210	189.964484	-381.188014	729.949826	411.714319	-548.303595	638.009643	437.291184	-617.547978	533.858570	351.799821	-549.473703	555.930315	 92.255916	-407.901733	791.271214	 66.562604	-385.351833	750.201470	 49.238252	-297.769307	365.581951	425.595927	-528.430589	403.237785	197.076674	-552.891369	364.996262	228.511912	-630.064833	781.384230	1511.884935	-594.443621	739.898796	1476.672493	-258.201614	841.169080	1451.089763	-394.124541	704.568805	1532.466771	-443.930494	677.298455	1364.820982	-180.604398	608.027655	1286.891295	-208.682358	641.760113	1254.905479	-147.097907	629.983583	1162.589000	-116.806191	596.678621	1139.082206	-189.040331	737.995923	1428.900528	-702.741713	666.041422	1354.972211	-706.588718	714.694266	1331.972397	-770.327349	718.888789	1252.592661	-816.196590	648.368529	1224.048895	-786.825172	697.074721	1113.229061	-126.513508	884.773485	1099.188176	-215.440655	852.266472	1035.045618	-205.074848	786.838230	1161.496370	-754.571508	851.440407	1115.820577	-617.338155	825.835722	1064.404988	-654.954481	809.215741	973.768160	-321.223536	811.618730	1000.973899	-587.694106	
456	  4.560000	620.177902	1051.246900	-495.284420	621.525306	1050.741056	-411.381235	756.107609	856.225711	-259.628908	832.368915	726.539899	-274.516504	774.483671	611.294135	-292.963322	756.081334	855.052487	-630.898146	846.347599	751.976934	-604.635489	788.614516	609.527166	-606.851770	806.850148	363.635277	-357.946054	727.022449	284.876419	-314.674543	708.884566	189.942005	-381.497287	744.909837	414.167468	-547.743727	652.437668	437.551198	-616.384449	549.760095	350.227258	-548.117049	536.384377	 94.393579	-408.014243	771.185793	 66.447253	-385.276230	729.804300	 49.424395	-297.760132	378.896353	420.158522	-528.290029	424.407084	192.736230	-551.264016	386.148595	222.743268	-629.091119	780.035053	1512.893834	-594.097757	741.223338	1476.664545	-257.466649	841.084313	1451.111293	-394.320885	703.861789	1532.870751	-443.207918	681.538863	1363.149895	-180.139287	613.008738	1283.820530	-207.024568	649.481841	1251.829526	-147.028082	640.546349	1158.866901	-117.744710	606.482314	1135.333307	-189.852520	734.030738	1431.920893	-702.717506	660.468802	1360.243254	-705.986902	707.427406	1336.906398	-771.034380	708.895111	1257.747095	-818.022549	637.978719	1231.083698	-787.982294	708.815641	1112.090397	-129.572784	894.964225	1105.502373	-222.537915	865.311796	1040.036384	-211.412723	773.746250	1162.061657	-759.295632	839.055143	1111.739897	-623.829034	809.850709	1062.208271	-661.245412	807.459319	974.109248	-320.533821	810.282228	1001.412710	-587.320695	
457	  4.570000	618.445592	1053.281695	-494.980613	619.406949	1052.651921	-410.735378	750.998416	856.025568	-259.774493	824.378166	725.045855	-274.619608	763.426505	610.967434	-293.369367	756.349347	857.668808	-631.227402	849.710561	757.361317	-605.284276	796.990641	613.625350	-606.408458	791.176498	362.619958	-357.949786	710.081351	285.201651	-314.730773	690.509298	190.418343	-381.397826	759.592003	417.572067	-547.300167	666.474584	438.028587	-615.252381	566.261692	348.187672	-546.962018	516.829081	 96.768113	-407.550900	751.380314	 66.586498	-385.235508	709.509105	 49.462523	-297.647976	392.290573	412.635789	-527.836844	447.044631	187.022049	-549.593647	408.376362	215.294949	-627.846790	778.295899	1515.186484	-593.948487	742.797199	1477.990985	-257.116328	841.056932	1452.668250	-395.003040	703.417612	1534.479645	-442.628666	686.225763	1363.336365	-179.749229	618.042678	1282.971106	-205.175565	657.005397	1250.521907	-147.387576	650.708115	1157.163454	-119.516722	615.709123	1133.526296	-191.398504	729.466548	1436.492542	-702.872443	654.582478	1367.052519	-706.461515	700.045677	1343.472987	-772.402102	698.556785	1264.609863	-820.276498	627.293467	1239.969004	-789.546853	720.276469	1113.585880	-133.306522	904.156065	1114.660490	-230.473249	877.840106	1047.938096	-218.067064	760.509605	1165.541357	-763.825645	826.719192	1111.791714	-630.159604	794.032844	1063.917379	-666.601976	805.719812	975.883458	-319.660302	808.966923	1003.278476	-586.771071	
458	  4.580000	616.703149	1056.648747	-494.557758	617.316597	1056.043114	-409.927545	745.432002	856.826087	-260.443404	816.237758	724.461797	-275.314784	751.805756	611.798243	-293.959144	757.104831	861.759621	-631.573763	853.234581	764.066292	-605.756826	805.078382	619.066404	-606.400433	774.876996	362.684004	-358.412853	692.832062	286.354639	-314.728898	671.984829	191.583115	-381.002517	773.820438	421.806160	-546.920617	680.034843	438.604143	-614.273619	583.390070	345.802185	-546.112058	497.426211	 99.705023	-406.675846	731.837355	 66.842728	-385.220953	689.376330	 49.401364	-297.414375	405.863384	403.120429	-527.164896	471.178462	180.299151	-547.908732	431.611549	206.343976	-626.344380	776.233343	1518.768711	-594.035217	744.581616	1480.690203	-257.088765	841.123240	1455.602253	-396.139902	703.175076	1537.248653	-442.175670	691.186911	1365.176119	-179.504133	623.189041	1284.104466	-203.258148	664.367472	1250.714916	-148.137479	660.340084	1157.166133	-122.078653	624.390721	1133.463229	-193.529441	724.323639	1442.563638	-703.092319	648.439187	1375.131135	-707.319506	692.455765	1351.537980	-774.111013	688.010674	1273.130815	-822.701080	616.444032	1250.473944	-791.366361	731.165729	1116.895839	-137.658547	912.228847	1125.979272	-239.062938	889.660585	1058.328170	-225.036303	747.502061	1171.727872	-767.983323	814.571053	1115.263522	-636.143092	778.760470	1068.859850	-671.201535	803.964144	979.219131	-318.671383	807.636011	1006.691935	-586.097765	
